<svg xmlns="http://www.w3.org/2000/svg" xmlns:xlink="http://www.w3.org/1999/xlink" width="500" zoomAndPan="magnify" viewBox="0 0 375 374.999991" height="500" preserveAspectRatio="xMidYMid meet" version="1.0"><defs><g/></defs><g fill="#5e17eb" fill-opacity="0.4"><g transform="translate(113.550649, 257.952873)"><g><path d="M 2.699219 0 L 23.398438 0 L 23.398438 -40.855469 L 23.578125 -40.855469 L 35.007812 0 L 52.105469 0 L 63.714844 -40.855469 L 63.894531 -40.855469 L 63.894531 0 L 84.59375 0 L 84.59375 -64.792969 L 53.816406 -64.792969 L 43.738281 -26.277344 L 43.554688 -26.277344 L 33.835938 -64.792969 L 2.699219 -64.792969 Z M 2.699219 0 "/></g></g></g><g fill="#5e17eb" fill-opacity="1"><g transform="translate(109.573408, 253.975632)"><g><path d="M 2.699219 0 L 23.398438 0 L 23.398438 -40.855469 L 23.578125 -40.855469 L 35.007812 0 L 52.105469 0 L 63.714844 -40.855469 L 63.894531 -40.855469 L 63.894531 0 L 84.59375 0 L 84.59375 -64.792969 L 53.816406 -64.792969 L 43.738281 -26.277344 L 43.554688 -26.277344 L 33.835938 -64.792969 L 2.699219 -64.792969 Z M 2.699219 0 "/></g></g></g><g fill="#5e17eb" fill-opacity="0.4"><g transform="translate(206.86705, 257.952873)"><g><path d="M 2.699219 0 L 29.15625 0 C 49.765625 0 61.195312 -11.609375 61.195312 -32.398438 C 61.195312 -53.1875 49.945312 -64.792969 29.609375 -64.792969 L 2.699219 -64.792969 Z M 25.199219 -18 L 25.199219 -46.796875 L 28.707031 -46.796875 C 34.558594 -46.796875 37.796875 -41.667969 37.796875 -32.398438 C 37.796875 -23.128906 34.558594 -18 28.707031 -18 Z M 25.199219 -18 "/></g></g></g><g fill="#000000" fill-opacity="1"><g transform="translate(202.889808, 253.975632)"><g><path d="M 2.699219 0 L 29.15625 0 C 49.765625 0 61.195312 -11.609375 61.195312 -32.398438 C 61.195312 -53.1875 49.945312 -64.792969 29.609375 -64.792969 L 2.699219 -64.792969 Z M 25.199219 -18 L 25.199219 -46.796875 L 28.707031 -46.796875 C 34.558594 -46.796875 37.796875 -41.667969 37.796875 -32.398438 C 37.796875 -23.128906 34.558594 -18 28.707031 -18 Z M 25.199219 -18 "/></g></g></g></svg>