<svg xmlns="http://www.w3.org/2000/svg" xmlns:xlink="http://www.w3.org/1999/xlink" width="500" zoomAndPan="magnify" viewBox="0 0 375 374.999991" height="500" preserveAspectRatio="xMidYMid meet" version="1.0"><defs><g/></defs><g fill="#5e17eb" fill-opacity="0.4"><g transform="translate(101.977666, 267.645011)"><g><path d="M 3 0 L 25.996094 0 L 25.996094 -45.394531 L 26.199219 -45.394531 L 38.894531 0 L 57.894531 0 L 70.792969 -45.394531 L 70.992188 -45.394531 L 70.992188 0 L 93.992188 0 L 93.992188 -71.992188 L 59.792969 -71.992188 L 48.59375 -29.195312 L 48.394531 -29.195312 L 37.597656 -71.992188 L 3 -71.992188 Z M 3 0 "/></g></g></g><g fill="#5e17eb" fill-opacity="0.4"><g transform="translate(205.661966, 267.645011)"><g><path d="M 3 0 L 32.398438 0 C 55.292969 0 67.992188 -12.898438 67.992188 -35.996094 C 67.992188 -59.09375 55.496094 -71.992188 32.898438 -71.992188 L 3 -71.992188 Z M 27.996094 -19.996094 L 27.996094 -51.996094 L 31.898438 -51.996094 C 38.394531 -51.996094 41.996094 -46.296875 41.996094 -35.996094 C 41.996094 -25.699219 38.394531 -19.996094 31.898438 -19.996094 Z M 27.996094 -19.996094 "/></g></g></g><g fill="#9750dd" fill-opacity="1"><g transform="translate(97.558592, 263.225944)"><g><path d="M 3 0 L 25.996094 0 L 25.996094 -45.394531 L 26.199219 -45.394531 L 38.894531 0 L 57.894531 0 L 70.792969 -45.394531 L 70.992188 -45.394531 L 70.992188 0 L 93.992188 0 L 93.992188 -71.992188 L 59.792969 -71.992188 L 48.59375 -29.195312 L 48.394531 -29.195312 L 37.597656 -71.992188 L 3 -71.992188 Z M 3 0 "/></g></g></g><g fill="#9750dd" fill-opacity="1"><g transform="translate(201.242892, 263.225944)"><g><path d="M 3 0 L 32.398438 0 C 55.292969 0 67.992188 -12.898438 67.992188 -35.996094 C 67.992188 -59.09375 55.496094 -71.992188 32.898438 -71.992188 L 3 -71.992188 Z M 27.996094 -19.996094 L 27.996094 -51.996094 L 31.898438 -51.996094 C 38.394531 -51.996094 41.996094 -46.296875 41.996094 -35.996094 C 41.996094 -25.699219 38.394531 -19.996094 31.898438 -19.996094 Z M 27.996094 -19.996094 "/></g></g></g></svg>